<?xml version="1.0" standalone="no"?>
<!DOCTYPE svg PUBLIC "-//W3C//DTD SVG 20010904//EN"
 "http://www.w3.org/TR/2001/REC-SVG-20010904/DTD/svg10.dtd">
<svg version="1.0" xmlns="http://www.w3.org/2000/svg"
 width="2756.000000pt" height="2756.000000pt" viewBox="0 0 2756.000000 2756.000000"
 preserveAspectRatio="xMidYMid meet">
<metadata>
Created by potrace 1.11, written by Peter Selinger 2001-2013
</metadata>
<g transform="translate(0.000000,2756.000000) scale(0.100000,-0.100000)"
fill="#000000" stroke="none">
<path d="M6179 27486 c-2 -2 -35 -6 -74 -10 -592 -52 -1203 -373 -1594 -836
-25 -30 -51 -61 -58 -68 -27 -29 -135 -184 -186 -268 -134 -220 -278 -582
-303 -764 -2 -19 -7 -42 -10 -51 -2 -10 -6 -30 -9 -45 -3 -28 -7 -49 -22 -140
-7 -37 -16 -15769 -11 -17568 l3 -869 150 224 c83 123 154 228 158 234 4 5 53
78 109 160 55 83 192 285 303 450 111 165 286 426 390 580 103 154 234 348
290 430 56 83 186 276 290 430 104 154 252 375 330 490 78 116 184 273 235
350 52 77 98 142 102 143 4 2 8 7 8 12 0 5 23 41 50 82 28 40 55 80 60 88 6 8
78 116 162 240 83 124 254 378 381 565 126 187 268 399 315 470 48 72 89 132
92 135 3 3 58 84 122 180 64 96 192 288 285 425 333 493 609 903 717 1065 61
91 115 169 119 175 4 5 61 89 125 185 198 295 570 847 677 1005 56 83 186 276
290 430 104 154 252 375 330 490 78 116 239 354 357 530 379 563 458 680 472
700 8 11 61 90 118 175 161 240 464 689 647 960 91 135 192 286 225 335 32 50
62 92 65 95 3 3 11 13 16 22 11 19 344 516 357 533 5 6 23 33 41 60 18 28 99
147 178 265 80 118 201 298 269 400 68 102 127 187 130 190 4 3 9 12 13 20 4
8 63 98 133 200 69 102 221 327 338 500 116 173 214 320 219 325 4 6 56 82
115 170 182 271 560 831 677 1005 115 170 333 494 680 1010 109 162 244 363
300 445 99 146 159 235 640 950 126 187 292 432 368 545 76 113 222 329 323
480 102 151 294 437 428 635 133 198 345 512 470 698 l227 337 -5814 0 c-3198
0 -5816 -2 -5818 -4z"/>
<path d="M22367 27098 c-24 -35 -83 -119 -131 -188 -47 -69 -91 -133 -98 -142
-6 -9 -106 -153 -221 -320 -115 -167 -242 -349 -281 -406 -141 -205 -247 -358
-281 -407 -19 -27 -61 -88 -94 -135 -33 -47 -93 -134 -135 -195 -41 -60 -90
-132 -110 -160 -26 -37 -644 -931 -716 -1035 -6 -8 -45 -64 -87 -125 -42 -60
-108 -157 -148 -215 -39 -58 -94 -137 -121 -176 -45 -65 -134 -193 -607 -877
-92 -133 -175 -253 -185 -266 -9 -13 -24 -34 -32 -47 -16 -23 -117 -171 -147
-214 -20 -28 -296 -426 -409 -590 -40 -58 -102 -148 -138 -200 -60 -88 -258
-374 -356 -515 -23 -33 -72 -103 -108 -155 -184 -268 -440 -638 -591 -855 -30
-44 -117 -170 -193 -280 -76 -110 -142 -207 -148 -215 -22 -31 -554 -799 -606
-875 -30 -44 -91 -132 -135 -195 -44 -63 -99 -144 -124 -180 -24 -36 -100
-146 -169 -245 -68 -99 -153 -222 -188 -272 -35 -51 -71 -103 -80 -115 -9 -13
-155 -223 -324 -468 -429 -620 -445 -643 -518 -750 -36 -52 -97 -140 -135
-195 -39 -55 -99 -143 -135 -195 -51 -75 -186 -270 -276 -400 -6 -8 -42 -60
-80 -115 -38 -55 -84 -120 -101 -145 -30 -43 -220 -318 -401 -581 l-87 -126
58 -89 c33 -49 149 -225 260 -392 111 -166 201 -306 201 -311 0 -5 3 -11 8
-13 6 -3 119 -168 132 -193 3 -5 108 -165 234 -355 126 -190 283 -428 350
-530 66 -102 124 -189 129 -195 4 -5 83 -125 176 -265 92 -140 237 -361 323
-490 85 -129 220 -334 300 -455 79 -121 221 -335 314 -475 93 -140 173 -263
179 -272 5 -9 55 -84 110 -167 137 -207 553 -838 618 -936 28 -44 56 -84 60
-90 4 -5 98 -147 209 -315 474 -720 417 -634 980 -1485 112 -170 258 -391 323
-490 66 -99 123 -182 127 -183 4 -2 8 -8 8 -13 0 -7 240 -355 271 -393 5 -6
60 -78 121 -161 62 -82 115 -152 118 -155 3 -3 27 -33 53 -67 26 -34 53 -68
60 -75 7 -7 52 -61 99 -120 48 -58 93 -112 100 -120 7 -7 31 -33 52 -58 271
-311 606 -635 881 -854 61 -48 117 -93 125 -99 8 -7 74 -53 145 -104 241 -168
532 -330 770 -426 143 -58 148 -60 160 -63 6 -1 30 -10 55 -19 25 -9 68 -23
95 -31 81 -22 208 -56 230 -60 11 -2 31 -6 45 -9 44 -10 184 -35 225 -40 22
-3 56 -8 75 -10 161 -22 666 -27 990 -11 96 5 183 8 193 8 16 -1 17 500 14
10666 -1 5867 -5 10678 -9 10692 -4 14 -9 45 -12 70 -3 25 -8 55 -10 66 -2 12
-7 37 -10 55 -16 101 -92 358 -141 474 -134 317 -326 600 -567 830 -103 98
-113 107 -212 184 -64 50 -260 181 -270 181 -3 0 -25 -28 -49 -62z"/>
<path d="M10910 10345 c-217 -328 -401 -603 -408 -613 -7 -9 -46 -69 -88 -132
-41 -63 -82 -124 -90 -135 -8 -11 -505 -758 -1106 -1660 -2497 -3753 -3079
-4627 -3835 -5762 -436 -655 -793 -1195 -793 -1200 0 -18 128 -140 265 -252
140 -115 376 -254 565 -334 96 -40 255 -94 302 -102 17 -3 35 -8 40 -11 12 -8
182 -41 314 -61 76 -11 14042 -15 14024 -3 -8 5 -22 10 -31 10 -25 0 -387 121
-519 173 -602 237 -1155 576 -1705 1046 -154 132 -285 253 -464 432 -110 109
-313 322 -368 385 -65 75 -131 151 -148 170 -11 12 -27 31 -35 41 -8 10 -47
57 -86 103 -38 47 -88 107 -110 135 -21 27 -45 56 -52 64 -14 15 -108 136
-194 250 -31 42 -61 81 -65 86 -66 80 -433 600 -433 613 0 6 -4 12 -9 14 -12
4 -245 361 -421 643 -78 127 -176 283 -216 348 -41 65 -74 120 -74 123 0 3 -5
10 -10 17 -6 7 -38 57 -72 112 -33 55 -71 116 -83 135 -13 19 -130 208 -260
420 -130 212 -249 404 -264 427 -14 23 -42 68 -62 100 -134 218 -288 467 -318
516 -20 32 -51 81 -68 108 -18 27 -33 51 -33 53 0 3 -24 43 -52 89 -29 45 -58
92 -65 102 -11 20 -127 208 -209 340 -24 39 -48 75 -54 82 -5 7 -10 14 -10 17
0 3 -50 85 -111 183 -61 98 -119 192 -129 208 -15 26 -224 365 -250 405 -15
23 -74 120 -85 139 -5 9 -29 46 -51 82 -36 55 -172 276 -207 334 -7 11 -29 46
-49 78 -21 32 -38 61 -38 63 0 3 -12 24 -27 47 -16 23 -33 51 -40 62 -11 19
-226 366 -303 490 -21 33 -79 128 -130 210 -51 83 -100 161 -108 175 -9 14
-21 33 -27 42 -26 46 -101 168 -130 213 -18 28 -128 205 -245 395 -116 190
-220 357 -231 372 -10 15 -19 29 -19 32 0 3 -22 40 -50 82 -27 42 -50 80 -50
85 0 38 -74 -65 -420 -586z"/>
</g>
</svg>
